<?xml version="1.0" encoding="UTF-8" standalone="no"?>
<!DOCTYPE svg PUBLIC "-//W3C//DTD SVG 1.1//EN" "http://www.w3.org/Graphics/SVG/1.1/DTD/svg11.dtd">
<!-- Created with Vectornator (http://vectornator.io/) -->
<svg height="100%" stroke-miterlimit="10" style="fill-rule:nonzero;clip-rule:evenodd;stroke-linecap:round;stroke-linejoin:round;" version="1.1" viewBox="0 0 700 700" width="100%" xml:space="preserve" xmlns="http://www.w3.org/2000/svg" xmlns:vectornator="http://vectornator.io" xmlns:xlink="http://www.w3.org/1999/xlink">
<defs/>
<g id="Untitled" vectornator:layerName="Untitled">
<g opacity="1">
<path d="M523.47 391.372C508.036 456.517 456.197 508.392 391.4 523.532L388.22 524.274L388.22 549.442L393.205 548.364C470.803 531.657 531.685 470.739 548.295 393.184L549.365 388.208L524.217 388.208L523.47 391.372Z" fill="#000000" fill-rule="nonzero" opacity="1" stroke="none"/>
<path d="M151.87 306.792L150.788 311.776L175.87 311.776L176.616 308.608C191.964 243.518 243.772 191.678 308.596 176.528L311.776 175.786L311.78 150.614L306.799 151.692C229.498 168.325 168.689 229.204 151.869 306.792L151.87 306.792Z" fill="#000000" fill-rule="nonzero" opacity="1" stroke="none"/>
<path d="M523.54 308.602L524.286 311.778L549.36 311.778L548.286 306.801C531.649 229.418 470.774 168.601 393.196 151.861L388.211 150.787L388.211 175.779L391.379 176.533C456.445 191.959 508.329 243.799 523.539 308.603L523.54 308.602Z" fill="#000000" fill-rule="nonzero" opacity="1" stroke="none"/>
<path d="M176.54 391.382L175.798 388.206L150.634 388.206L151.708 393.183C168.333 470.519 229.208 531.363 306.798 548.203L311.786 549.285L311.786 524.207L308.614 523.461C243.536 508.109 191.694 456.27 176.544 391.381L176.54 391.382Z" fill="#000000" fill-rule="nonzero" opacity="1" stroke="none"/>
<path d="M350 219.922C360.051 219.922 368.199 211.77 368.199 201.723L368.199 104.672C368.199 94.625 360.051 86.469 350 86.469C339.949 86.469 331.801 94.6252 331.801 104.668L331.801 201.719C331.805 211.77 339.949 219.922 350 219.922Z" fill="#000000" fill-rule="nonzero" opacity="1" stroke="none"/>
<path d="M350 480.082C339.949 480.082 331.801 488.234 331.801 498.281L331.801 595.332C331.805 605.379 339.949 613.531 350 613.531C360.051 613.531 368.199 605.379 368.199 595.336L368.199 498.285C368.199 488.234 360.051 480.082 350 480.082Z" fill="#000000" fill-rule="nonzero" opacity="1" stroke="none"/>
<path d="M595.33 331.802L498.279 331.802C488.228 331.802 480.084 339.954 480.084 349.997C480.084 360.044 488.232 368.196 498.279 368.196L595.33 368.196C605.381 368.196 613.529 360.044 613.529 349.997C613.529 339.954 605.381 331.802 595.33 331.802Z" fill="#000000" fill-rule="nonzero" opacity="1" stroke="none"/>
<path d="M219.92 350.002C219.92 339.959 211.772 331.807 201.721 331.807L104.67 331.807C94.619 331.807 86.471 339.959 86.471 350.002C86.471 360.049 94.6194 368.201 104.67 368.201L201.721 368.201C211.772 368.201 219.92 360.049 219.92 350.002Z" fill="#000000" fill-rule="nonzero" opacity="1" stroke="none"/>
<path d="M282.2 318.702C282.2 345.136 315.966 406.815 335.813 440.912C342.153 451.787 357.801 451.787 364.227 440.912C384.075 406.818 417.754 345.135 417.754 318.702C417.754 281.229 387.449 250.925 349.977 250.925C312.586 250.925 282.2 281.23 282.2 318.702ZM380.282 318.538C380.282 335.339 366.692 348.847 349.977 348.847C333.176 348.847 319.754 335.339 319.754 318.538C319.754 301.901 333.176 288.315 349.977 288.315C366.692 288.315 380.282 301.901 380.282 318.538Z" fill="#000000" fill-rule="nonzero" opacity="1" stroke="none"/>
</g>
</g>
</svg>
