<?xml version="1.0" encoding="UTF-8" standalone="no"?>
<!DOCTYPE svg PUBLIC "-//W3C//DTD SVG 1.1//EN" "http://www.w3.org/Graphics/SVG/1.1/DTD/svg11.dtd">
<!-- Created with Vectornator (http://vectornator.io/) -->
<svg height="100%" stroke-miterlimit="10" style="fill-rule:nonzero;clip-rule:evenodd;stroke-linecap:round;stroke-linejoin:round;" version="1.1" viewBox="0 0 700 700" width="100%" xml:space="preserve" xmlns="http://www.w3.org/2000/svg" xmlns:vectornator="http://vectornator.io" xmlns:xlink="http://www.w3.org/1999/xlink">
<defs/>
<g id="Untitled" vectornator:layerName="Untitled">
<g opacity="1">
<path d="M578.007 404.379C557.721 490.005 489.584 558.189 404.416 578.088L400.236 579.064L400.236 612.144L406.788 610.727C508.782 588.768 588.805 508.698 610.637 406.761L612.043 400.22L578.989 400.22L578.007 404.379Z" fill="#000000" fill-rule="nonzero" opacity="1" stroke="none"/>
<path d="M89.5803 293.208L88.1582 299.759L121.126 299.759L122.106 295.595C142.279 210.041 210.375 141.903 295.579 121.991L299.759 121.015L299.764 87.9295L293.217 89.3464C191.614 111.209 111.687 191.227 89.579 293.208L89.5803 293.208Z" fill="#000000" fill-rule="nonzero" opacity="1" stroke="none"/>
<path d="M578.099 295.587L579.079 299.761L612.036 299.761L610.625 293.22C588.757 191.508 508.744 111.571 406.776 89.5685L400.224 88.1569L400.224 121.006L404.388 121.997C489.91 142.273 558.106 210.411 578.098 295.588L578.099 295.587Z" fill="#000000" fill-rule="nonzero" opacity="1" stroke="none"/>
<path d="M122.006 404.392L121.031 400.217L87.9558 400.217L89.3674 406.759C111.219 508.409 191.232 588.381 293.216 610.516L299.772 611.938L299.772 578.976L295.603 577.995C210.065 557.817 141.925 489.68 122.012 404.391L122.006 404.392Z" fill="#000000" fill-rule="nonzero" opacity="1" stroke="none"/>
<path d="M350 179.027C363.211 179.027 373.921 168.312 373.921 155.107L373.921 27.5439C373.921 14.3382 363.211 3.61806 350 3.61806C336.789 3.61806 326.079 14.3385 326.079 27.5386L326.079 155.101C326.085 168.312 336.789 179.027 350 179.027Z" fill="#000000" fill-rule="nonzero" opacity="1" stroke="none"/>
<path d="M350 520.978C336.789 520.978 326.079 531.693 326.079 544.899L326.079 672.461C326.085 685.667 336.789 696.382 350 696.382C363.211 696.382 373.921 685.667 373.921 672.467L373.921 544.904C373.921 531.693 363.211 520.978 350 520.978Z" fill="#000000" fill-rule="nonzero" opacity="1" stroke="none"/>
<path d="M672.459 326.081L544.896 326.081C531.685 326.081 520.981 336.796 520.981 349.996C520.981 363.202 531.69 373.917 544.896 373.917L672.459 373.917C685.67 373.917 696.379 363.202 696.379 349.996C696.379 336.796 685.67 326.081 672.459 326.081Z" fill="#000000" fill-rule="nonzero" opacity="1" stroke="none"/>
<path d="M179.024 350.003C179.024 336.802 168.315 326.087 155.104 326.087L27.5412 326.087C14.3303 326.087 3.6207 336.802 3.6207 350.003C3.6207 363.208 14.3309 373.923 27.5412 373.923L155.104 373.923C168.315 373.923 179.024 363.208 179.024 350.003Z" fill="#000000" fill-rule="nonzero" opacity="1" stroke="none"/>
<path d="M260.885 308.862C260.885 343.607 305.266 424.677 331.353 469.494C339.686 483.788 360.254 483.788 368.7 469.494C394.788 424.681 439.055 343.606 439.055 308.862C439.055 259.608 399.223 219.777 349.97 219.777C300.823 219.777 260.885 259.61 260.885 308.862ZM389.802 308.647C389.802 330.73 371.94 348.484 349.97 348.484C327.887 348.484 310.245 330.73 310.245 308.647C310.245 286.779 327.887 268.922 349.97 268.922C371.94 268.922 389.802 286.779 389.802 308.647Z" fill="#000000" fill-rule="nonzero" opacity="1" stroke="none"/>
</g>
</g>
</svg>
